<svg width="39" height="39" viewBox="0 0 39 39" fill="none" xmlns="http://www.w3.org/2000/svg">
<path d="M19.89 21.45L18.135 23.205C17.7775 23.5625 17.5987 24.0175 17.5987 24.57C17.5987 25.1225 17.7775 25.5775 18.135 25.935C18.4925 26.2925 18.9475 26.4712 19.5 26.4712C20.0525 26.4712 20.5075 26.2925 20.865 25.935L25.935 20.865C26.325 20.475 26.52 20.02 26.52 19.5C26.52 18.98 26.325 18.525 25.935 18.135L20.865 13.065C20.5075 12.7075 20.0525 12.5287 19.5 12.5287C18.9475 12.5287 18.4925 12.7075 18.135 13.065C17.7775 13.4225 17.5987 13.8775 17.5987 14.43C17.5987 14.9825 17.7775 15.4375 18.135 15.795L19.89 17.55H13.65C13.0975 17.55 12.634 17.7372 12.2596 18.1116C11.8852 18.486 11.6987 18.9488 11.7 19.5C11.7 20.0525 11.8872 20.5159 12.2616 20.8903C12.636 21.2647 13.0988 21.4513 13.65 21.45H19.89ZM19.5 39C16.8025 39 14.2675 38.4878 11.895 37.4634C9.5225 36.439 7.45875 35.0499 5.70375 33.2962C3.94875 31.5412 2.5597 29.4775 1.5366 27.105C0.5135 24.7325 0.0013 22.1975 0 19.5C0 16.8025 0.5122 14.2675 1.5366 11.895C2.561 9.5225 3.95005 7.45875 5.70375 5.70375C7.45875 3.94875 9.5225 2.5597 11.895 1.5366C14.2675 0.5135 16.8025 0.0013 19.5 0C22.1975 0 24.7325 0.5122 27.105 1.5366C29.4775 2.561 31.5412 3.95005 33.2962 5.70375C35.0512 7.45875 36.4409 9.5225 37.4653 11.895C38.4897 14.2675 39.0013 16.8025 39 19.5C39 22.1975 38.4878 24.7325 37.4634 27.105C36.439 29.4775 35.0499 31.5412 33.2962 33.2962C31.5412 35.0512 29.4775 36.4409 27.105 37.4653C24.7325 38.4897 22.1975 39.0013 19.5 39ZM19.5 35.1C23.855 35.1 27.5437 33.5887 30.5662 30.5662C33.5887 27.5437 35.1 23.855 35.1 19.5C35.1 15.145 33.5887 11.4562 30.5662 8.43375C27.5437 5.41125 23.855 3.9 19.5 3.9C15.145 3.9 11.4562 5.41125 8.43375 8.43375C5.41125 11.4562 3.9 15.145 3.9 19.5C3.9 23.855 5.41125 27.5437 8.43375 30.5662C11.4562 33.5887 15.145 35.1 19.5 35.1Z" fill="white"/>
</svg>
