<svg width="62" height="62" viewBox="0 0 62 62" fill="none" xmlns="http://www.w3.org/2000/svg">
<mask id="path-1-inside-1_25_5" fill="white">
<path d="M55.5055 33.5291C55.5055 33.2753 55.4046 33.0319 55.2252 32.8524C55.0457 32.673 54.8023 32.5721 54.5485 32.5721H28.7097V6.69893C28.7097 6.44512 28.6089 6.20171 28.4294 6.02224C28.25 5.84277 28.0065 5.74194 27.7527 5.74194C12.4504 5.74194 0 18.1733 0 33.4545C0 49.2984 11.949 61.2474 27.7929 61.2474C42.5555 61.2474 55.5055 48.2936 55.5055 33.5291ZM1.91398 33.4545C1.91398 19.5475 12.9902 8.17844 26.7957 7.67315V33.5291C26.7957 34.0574 27.2245 34.4861 27.7527 34.4517H53.5723C53.0307 47.8304 41.2176 59.3334 27.7929 59.3334C13.04 59.3334 1.91398 48.2094 1.91398 33.4545Z"/>
</mask>
<path d="M55.5055 33.5291C55.5055 33.2753 55.4046 33.0319 55.2252 32.8524C55.0457 32.673 54.8023 32.5721 54.5485 32.5721H28.7097V6.69893C28.7097 6.44512 28.6089 6.20171 28.4294 6.02224C28.25 5.84277 28.0065 5.74194 27.7527 5.74194C12.4504 5.74194 0 18.1733 0 33.4545C0 49.2984 11.949 61.2474 27.7929 61.2474C42.5555 61.2474 55.5055 48.2936 55.5055 33.5291ZM1.91398 33.4545C1.91398 19.5475 12.9902 8.17844 26.7957 7.67315V33.5291C26.7957 34.0574 27.2245 34.4861 27.7527 34.4517H53.5723C53.0307 47.8304 41.2176 59.3334 27.7929 59.3334C13.04 59.3334 1.91398 48.2094 1.91398 33.4545Z" fill="#E95020"/>
<path d="M28.7097 32.5721H-11.2903V72.5721H28.7097V32.5721ZM26.7957 7.67315H66.7957V-33.8177L25.3327 -32.3001L26.7957 7.67315ZM27.7527 34.4517V-5.54833H26.4498L25.1496 -5.46354L27.7527 34.4517ZM53.5723 34.4517L93.5396 36.0698L95.2246 -5.54833H53.5723V34.4517ZM95.5055 33.5291C95.5055 22.6668 91.1904 12.2492 83.5094 4.56816L26.9409 61.1367C19.6188 53.8146 15.5055 43.8839 15.5055 33.5291H95.5055ZM83.5094 4.56816C75.8284 -3.11284 65.4108 -7.42786 54.5485 -7.42786V72.5721C44.1937 72.5721 34.263 68.4588 26.9409 61.1367L83.5094 4.56816ZM54.5485 -7.42786H28.7097V72.5721H54.5485V-7.42786ZM68.7097 32.5721V6.69893H-11.2903V32.5721H68.7097ZM68.7097 6.69893C68.7097 -4.16347 64.3947 -14.5811 56.7137 -22.262L0.145157 34.3065C-7.17688 26.9845 -11.2903 17.0537 -11.2903 6.69893H68.7097ZM56.7137 -22.262C49.0328 -29.943 38.6152 -34.2581 27.7527 -34.2581V45.7419C17.3979 45.7419 7.46715 41.6285 0.145157 34.3065L56.7137 -22.262ZM27.7527 -34.2581C-9.58522 -34.2581 -40 -3.97381 -40 33.4545H40C40 40.3203 34.4861 45.7419 27.7527 45.7419V-34.2581ZM-40 33.4545C-40 71.3898 -10.1424 101.247 27.7929 101.247V21.2474C30.196 21.2474 33.5074 22.2762 36.2393 25.0082C38.9712 27.7401 40 31.0514 40 33.4545H-40ZM27.7929 101.247C64.6557 101.247 95.5055 70.3761 95.5055 33.5291H15.5055C15.5055 29.1196 17.3623 26.1796 18.8975 24.644C20.4329 23.1083 23.3763 21.2474 27.7929 21.2474V101.247ZM41.914 33.4545C41.914 41.2163 35.8139 47.3699 28.2588 47.6464L25.3327 -32.3001C-9.83351 -31.013 -38.086 -2.12134 -38.086 33.4545H41.914ZM-13.2043 7.67315V33.5291H66.7957V7.67315H-13.2043ZM-13.2043 33.5291C-13.2043 55.6003 5.22063 76.0061 30.3559 74.3669L25.1496 -5.46354C49.2283 -7.03389 66.7957 12.5144 66.7957 33.5291H-13.2043ZM27.7527 74.4517H53.5723V-5.54833H27.7527V74.4517ZM13.6051 32.8335C13.7928 28.1974 15.81 24.9918 17.695 23.1674C19.5923 21.331 22.9793 19.3334 27.7929 19.3334V99.3334C62.9679 99.3334 92.1415 70.6035 93.5396 36.0698L13.6051 32.8335ZM27.7929 19.3334C30.7393 19.3334 34.5294 20.5669 37.6046 23.642C40.6802 26.7174 41.914 30.5081 41.914 33.4545H-38.086C-38.086 70.3027 -9.04948 99.3334 27.7929 99.3334V19.3334Z" fill="#E95020" mask="url(#path-1-inside-1_25_5)"/>
<path d="M33.4947 0.956992L34.4523 1.91459L33.4947 0.956992Z" fill="#E95020" stroke="#E95020" stroke-width="40"/>
</svg>
