<svg width="61" height="62" viewBox="0 0 61 62" fill="none" xmlns="http://www.w3.org/2000/svg">
<path d="M37.2381 24.1278C38.6134 25.5255 40.3254 26.2294 42.3103 26.2294C44.2952 26.2294 46.0064 25.5256 47.3798 24.1275C48.7541 22.7306 49.4411 20.9993 49.4411 18.998C49.4411 16.9967 48.7542 15.2648 47.3804 13.866L47.3798 13.8654C46.0044 12.4674 44.2924 11.7634 42.3073 11.7634C40.3221 11.7634 38.6107 12.4675 37.2372 13.866C35.863 15.263 35.1765 16.9952 35.1765 18.998C35.1765 21.0009 35.8632 22.7326 37.2381 24.1278ZM37.2381 24.1278C37.238 24.1277 37.2379 24.1276 37.2378 24.1275L37.9506 23.4261M37.2381 24.1278C37.2382 24.1279 37.2383 24.128 37.2384 24.1281L37.9506 23.4261M37.9506 23.4261C39.1334 24.6283 40.5866 25.2294 42.3103 25.2294C44.0341 25.2294 45.4863 24.6283 46.6669 23.4261L37.9506 14.5667C36.7679 15.7689 36.1765 17.246 36.1765 18.998C36.1765 20.75 36.7679 22.2261 37.9506 23.4261ZM36.1232 59.3738L32.1753 50.1569C35.6136 48.7453 38.5999 47.2825 41.1278 45.7659C43.5217 44.3297 46.1242 42.4426 48.9339 40.113L49.3869 42.507L49.3883 42.5141C49.5624 43.399 49.5192 44.2662 49.258 45.1301C48.9945 46.0012 48.5618 46.7327 47.9606 47.3421L47.9596 47.3431L36.1232 59.3738ZM18.1849 43.4924L18.1853 43.4928C19.7974 45.1313 20.5979 47.0993 20.5979 49.4557C20.5979 51.8121 19.7974 53.78 18.1853 55.4185C17.0702 56.552 15.1088 57.6143 12.1603 58.5368C9.47675 59.3763 5.82034 60.1407 1.17164 60.8231C1.8439 56.0909 2.59721 52.3796 3.42475 49.6693C4.33304 46.6945 5.37992 44.7076 6.498 43.5712C8.11201 41.9307 10.0448 41.1094 12.3522 41.085C14.652 41.0607 16.576 41.8552 18.1849 43.4924ZM21.5625 12.2996C19.2478 15.1773 17.3753 17.8295 15.9529 20.2545C14.4612 22.798 13.0227 25.818 11.6348 29.3077L2.58167 25.364L14.5201 13.2296C15.1266 12.6131 15.8354 12.1765 16.6583 11.9124C17.4668 11.6529 18.2938 11.6078 19.1565 11.7823L21.5625 12.2996ZM17.7976 32.5663C18.9373 29.0893 20.4508 25.798 22.3384 22.6909C24.3288 19.4148 26.7355 16.3392 29.5617 13.4645C33.9918 8.96182 39.0421 5.60483 44.7174 3.38319C50.1203 1.26819 55.1247 0.575086 59.7523 1.24763C60.4178 5.96637 59.7461 11.0666 57.6864 16.5681C55.5255 22.3401 52.2347 27.4742 47.8054 31.9763C45.0296 34.7976 42.0035 37.2456 38.7267 39.3219C35.631 41.2834 32.3801 42.8414 28.9727 43.9977L17.7976 32.5663Z" fill="#1B1B1B" stroke="#E95020" stroke-width="2"/>
</svg>
