<svg width="20" height="16" viewBox="0 0 20 16" fill="none" xmlns="http://www.w3.org/2000/svg">
<path d="M2 15.9737C1.45 15.9737 0.979002 15.7872 0.587002 15.4143C0.195002 15.0414 -0.000664969 14.5936 1.69779e-06 14.071L1.69779e-06 2.6551C1.69779e-06 2.13187 0.196002 1.68379 0.588002 1.31087C0.980002 0.937952 1.45067 0.751809 2 0.752443L18 0.752443C18.55 0.752443 19.021 0.938903 19.413 1.31182C19.805 1.68474 20.0007 2.1325 20 2.6551V14.071C20 14.5943 19.804 15.0423 19.412 15.4153C19.02 15.7882 18.5493 15.9743 18 15.9737H2ZM10 9.31439L2 4.55775V14.071H18V4.55775L10 9.31439ZM10 7.41174L18 2.6551H2L10 7.41174ZM2 4.55775V2.6551V14.071V4.55775Z" fill="black"/>
</svg>
