<svg width="18" height="18" viewBox="0 0 18 18" fill="none" xmlns="http://www.w3.org/2000/svg">
<path d="M3.62 7.45967C5.06 10.1519 7.38 12.3495 10.21 13.7289L12.41 11.636C12.68 11.3791 13.08 11.2935 13.43 11.4077C14.55 11.7597 15.76 11.9499 17 11.9499C17.55 11.9499 18 12.378 18 12.9013V16.2214C18 16.7446 17.55 17.1727 17 17.1727C7.61 17.1727 0 9.93312 0 1.00016C0 0.476925 0.45 0.0488281 1 0.0488281L4.5 0.0488281C5.05 0.0488281 5.5 0.476925 5.5 1.00016C5.5 2.18931 5.7 3.33091 6.07 4.39639C6.18 4.72936 6.1 5.10038 5.82 5.36675L3.62 7.45967Z" fill="black"/>
</svg>
