<svg width="178" height="231" viewBox="0 0 178 231" fill="none" xmlns="http://www.w3.org/2000/svg">
<path d="M53.4117 0.875916C47.2558 -1.71172 39.7117 4.11172 40.6375 10.7168L50.9643 84.9886C51.1887 86.602 51.8325 88.1288 52.8314 89.4164C53.8302 90.704 55.149 91.7071 56.6559 92.3255C58.1628 92.944 59.8049 93.1559 61.4179 92.9402C63.0309 92.7245 64.5583 92.0887 65.8472 91.0965L124.715 45.747C126 44.7523 127.002 43.4373 127.621 41.9332C128.239 40.4291 128.452 38.7883 128.239 37.1746C128.025 35.5609 127.393 34.0306 126.405 32.7363C125.416 31.4421 124.106 30.429 122.606 29.7983L53.4117 0.875916ZM54.7322 228.873L106.241 189.193C108.193 187.689 109.466 185.471 109.781 183.025C110.096 180.58 109.427 178.107 107.92 176.152L68.1674 124.549C66.6612 122.594 64.4415 121.316 61.9965 120.997C59.5515 120.678 57.0815 121.343 55.13 122.846L3.62102 162.527C1.66944 164.03 0.396122 166.249 0.0811733 168.695C-0.233776 171.14 0.435445 173.612 1.94161 175.568L41.6947 227.17C43.2009 229.125 45.4206 230.403 47.8656 230.723C50.3106 231.042 52.7806 230.377 54.7322 228.873ZM110.318 80.331C92.0619 94.395 88.6711 120.724 102.761 139.013C116.85 157.303 143.173 160.741 161.429 146.677C179.685 132.613 183.076 106.285 168.987 87.9952C154.897 69.7057 128.574 66.267 110.318 80.331Z" fill="#E95020"/>
</svg>
