<svg width="138" height="122" viewBox="0 0 138 122" fill="none" xmlns="http://www.w3.org/2000/svg">
<path d="M33.6467 23.4266C33.3868 22.6523 32.8894 21.9791 32.2247 21.502C31.56 21.025 30.7618 20.7683 29.9428 20.7683C29.1238 20.7683 28.3255 21.025 27.6608 21.502C26.9962 21.9791 26.4987 22.6523 26.2389 23.4266L0.200998 101.299C0.00499809 101.884 -0.0486632 102.508 0.0444361 103.118C0.137535 103.728 0.374729 104.307 0.736467 104.808C1.09821 105.308 1.57413 105.716 2.12501 105.997C2.67588 106.279 3.28594 106.425 3.90489 106.426H55.9807C56.5996 106.425 57.2097 106.279 57.7605 105.997C58.3114 105.716 58.7873 105.308 59.1491 104.808C59.5108 104.307 59.748 103.728 59.8411 103.118C59.9342 102.508 59.8806 101.884 59.6846 101.299L33.6467 23.4266ZM9.32077 98.6383L29.9428 36.9894L50.5648 98.6383H9.32077ZM122.377 32.4468C122.377 26.0294 120.468 19.7562 116.892 14.4203C113.316 9.08449 108.232 4.9257 102.285 2.46988C96.338 0.0140586 89.7938 -0.628496 83.4802 0.623471C77.1667 1.87544 71.3673 4.9657 66.8155 9.50346C62.2636 14.0412 59.1638 19.8227 57.9079 26.1168C56.6521 32.4108 57.2966 38.9348 59.7601 44.8637C62.2235 50.7926 66.3952 55.8601 71.7476 59.4254C77.1 62.9907 83.3927 64.8936 89.8299 64.8936C98.4588 64.8833 106.731 61.4615 112.833 55.3788C118.935 49.2961 122.367 41.0491 122.377 32.4468ZM65.0939 32.4468C65.0939 27.5696 66.5447 22.8019 69.2627 18.7467C71.9807 14.6915 75.8439 11.5308 80.3639 9.66435C84.8838 7.79792 89.8574 7.30958 94.6557 8.26108C99.454 9.21257 103.862 11.5612 107.321 15.0099C110.78 18.4586 113.136 22.8525 114.091 27.636C115.045 32.4195 114.555 37.3777 112.683 41.8836C110.811 46.3896 107.64 50.2409 103.572 52.9505C99.5047 55.6601 94.7222 57.1064 89.8299 57.1064C83.2695 57.1064 76.9778 54.5083 72.3389 49.8838C67.7 45.2592 65.0939 38.9869 65.0939 32.4468ZM134.094 77.8723H76.811C75.7751 77.8723 74.7817 78.2826 74.0492 79.0128C73.3168 79.743 72.9053 80.7333 72.9053 81.766V118.106C72.9053 119.139 73.3168 120.129 74.0492 120.86C74.7817 121.59 75.7751 122 76.811 122H134.094C135.13 122 136.124 121.59 136.856 120.86C137.589 120.129 138 119.139 138 118.106V81.766C138 80.7333 137.589 79.743 136.856 79.0128C136.124 78.2826 135.13 77.8723 134.094 77.8723ZM130.189 114.213H80.7167V85.6596H130.189V114.213Z" fill="#E95020"/>
</svg>
