<svg width="42" height="42" viewBox="0 0 42 42" fill="none" xmlns="http://www.w3.org/2000/svg">
<path d="M15.5063 7.0042V37.6118H25.7088V7.0042C25.7088 6.10224 25.3505 5.23722 24.7128 4.59944C24.075 3.96166 23.21 3.60336 22.308 3.60336H18.9072C18.0052 3.60336 17.1402 3.96166 16.5024 4.59944C15.8646 5.23722 15.5063 6.10224 15.5063 7.0042ZM12.1055 17.2067V7.0042C12.1055 5.20028 12.8221 3.47025 14.0976 2.19468C15.3732 0.919119 17.1032 0.202515 18.9072 0.202515H22.308C24.1119 0.202515 25.842 0.919119 27.1175 2.19468C28.3931 3.47025 29.1097 5.20028 29.1097 7.0042V10.405H34.211C36.0149 10.405 37.7449 11.1217 39.0205 12.3972C40.296 13.6728 41.0126 15.4028 41.0126 17.2067V39.3122C41.0126 39.7632 40.8335 40.1957 40.5146 40.5146C40.1957 40.8335 39.7632 41.0126 39.3122 41.0126H1.90294C1.45196 41.0126 1.01945 40.8335 0.700557 40.5146C0.381666 40.1957 0.202515 39.7632 0.202515 39.3122V24.0084C0.202515 22.2045 0.919119 20.4745 2.19468 19.1989C3.47025 17.9233 5.20028 17.2067 7.0042 17.2067H12.1055ZM12.1055 37.6118V20.6076H7.0042C6.10224 20.6076 5.23722 20.9659 4.59944 21.6037C3.96166 22.2414 3.60336 23.1065 3.60336 24.0084V37.6118H12.1055ZM29.1097 37.6118H37.6118V17.2067C37.6118 16.3048 37.2535 15.4398 36.6157 14.802C35.9779 14.1642 35.1129 13.8059 34.211 13.8059H29.1097V37.6118Z" fill="white"/>
</svg>
