<svg width="318" height="35" viewBox="0 0 318 35" fill="none" xmlns="http://www.w3.org/2000/svg">
<path d="M303.509 8.20406C276.399 16.2967 264.249 14.9991 249.264 11.637C234.279 8.27484 213.523 0.571487 192.666 0.571487C171.808 0.571487 158.215 4.26391 140.193 8.54617C122.17 12.8284 111.387 12.4509 97.035 8.05071C82.6828 3.65047 65.6728 1.37368 65.6728 1.37368C29.3241 -2.94398 0.97406 11.8139 0.97406 11.8257L16.2881 27.0437C28.0584 23.4928 43.7522 19.1752 65.6728 22.4547C65.6728 22.4547 77.7975 24.5427 92.4281 28.7306C105.11 32.3641 122.17 33.9095 140.193 29.6272C158.215 25.3449 171.833 21.6643 192.666 21.6643C213.523 21.6643 230.432 28.0582 245.113 31.727C261.845 35.9031 285.107 36.2334 317.051 25.8758L303.509 8.20406Z" fill="#E95020"/>
</svg>
